# Blender v2.80 (sub 75) OBJ File: ''
# www.blender.org
mtllib DoorFrame.mtl
o Start_Door.001
v 2.020008 2.260255 0.207428
v -2.020022 2.260255 0.207428
v -2.020022 -2.260252 0.207428
v 2.020008 -2.260252 0.207428
v -2.020022 2.260255 -0.207412
v -2.020022 -2.260252 -0.207412
v 2.020008 2.260255 -0.207412
v 2.020008 -2.260252 -0.207412
v 2.493304 2.561048 0.207428
v 2.493304 -2.107926 0.207428
v -2.493318 2.561048 0.207428
v -2.493318 -2.107926 0.207428
v -2.493318 2.561048 -0.207412
v -2.493318 -2.107926 -0.207412
v 2.493304 2.561048 -0.207412
v 2.493304 -2.107926 -0.207412
v 2.172468 2.202055 0.207428
v 2.172468 -2.107835 0.207428
v -2.172482 -2.107835 0.207428
v -2.172482 2.202055 0.207428
v -2.261708 2.788579 -0.207412
v -2.172482 -2.107835 -0.207412
v -2.172482 2.202055 -0.207412
v 2.172468 -2.107835 -0.207412
v 2.172468 2.202055 -0.207412
v -2.645778 -2.260429 -0.207412
v 2.261694 2.788579 0.207428
v 2.645764 -2.260429 0.207428
v -2.261708 2.788579 0.207428
v -2.645778 -2.260429 0.207428
v 2.261694 2.788579 -0.207412
v 2.645764 -2.260429 -0.207412
v 2.172468 2.202055 0.136170
v 2.172468 -2.107835 0.136170
v -2.172482 2.202055 0.136170
v -2.172482 -2.107835 0.136170
v -2.172482 2.202055 -0.136154
v -2.172482 -2.107835 -0.136154
v 2.172468 2.202055 -0.136154
v 2.172468 -2.107835 -0.136154
v -2.493318 2.561048 -0.136154
v -2.493318 -2.107926 -0.136154
v 2.493304 2.561048 0.136170
v 2.493304 -2.107926 0.136170
v -2.493318 2.561048 0.136170
v -2.493318 -2.107926 0.136170
v 2.493304 2.561048 -0.136154
v 2.493304 -2.107926 -0.136154
v 1.943112 2.432108 0.207428
v -1.943126 2.432108 0.207428
v -2.645778 2.960432 -0.207412
v 1.943112 2.432108 -0.207412
v -1.943126 2.432108 -0.207412
v 2.645764 2.960432 0.207428
v -2.645778 2.960432 0.207428
v 2.645764 2.960432 -0.207412
v 1.943112 2.432108 0.135950
v -1.943126 2.432108 0.135950
v -1.943126 2.432108 -0.135934
v 1.943112 2.432108 -0.135934
v -2.261708 2.788579 -0.135934
v 2.261694 2.788579 0.135950
v -2.261708 2.788579 0.135950
v 2.261694 2.788579 -0.135934
vt 0.000000 0.000000
vt 0.000000 0.000000
vt 0.000000 0.000000
vt 0.000000 0.000000
vt 0.000000 0.000000
vt 0.000000 0.000000
vt 0.000000 0.000000
vt 0.000000 0.000000
vt 0.000000 0.000000
vt 0.000000 0.000000
vt 0.000000 0.000000
vt 0.000000 0.000000
vt 0.000000 0.000000
vt 0.000000 0.000000
vt 0.000000 0.000000
vt 0.000000 0.000000
vt 0.000000 0.000000
vt 0.000000 0.000000
vt 0.000000 0.000000
vt 0.000000 0.000000
vt 0.000000 0.000000
vt 0.000000 0.000000
vt 0.000000 0.000000
vt 0.000000 0.000000
vt 0.000000 0.000000
vt 0.000000 0.000000
vt 0.000000 0.000000
vt 0.000000 0.000000
vt 0.000000 0.000000
vt 0.000000 0.000000
vt 0.000000 0.000000
vt 0.000000 0.000000
vt 0.000000 0.000000
vt 0.000000 0.000000
vt 0.000000 0.000000
vt 0.000000 0.000000
vt 0.000000 0.000000
vt 0.000000 0.000000
vt 0.000000 0.000000
vt 0.000000 0.000000
vt 0.000000 0.000000
vt 0.000000 0.000000
vt 0.000000 0.000000
vt 0.000000 0.000000
vt 0.000000 0.000000
vt 0.000000 0.000000
vt 0.000000 0.000000
vt 0.000000 0.000000
vt 0.000000 0.000000
vt 0.000000 0.000000
vt 0.000000 0.000000
vt 0.000000 0.000000
vt 0.000000 0.000000
vt 0.000000 0.000000
vt 0.000000 0.000000
vt 0.000000 0.000000
vt 0.000000 0.000000
vt 0.000000 0.000000
vt 0.000000 0.000000
vt 0.000000 0.000000
vt 0.000000 0.000000
vt 0.000000 0.000000
vt 0.000000 0.000000
vt 0.000000 0.000000
vt 1.993390 1.426373
vt -0.772183 1.426373
vt -0.772183 -3.094135
vt 1.993390 -3.094135
vt 0.772183 1.426373
vt -1.993390 1.426373
vt -1.993390 -3.094135
vt 0.772183 -3.094135
vt -2.129501 -0.772183
vt 1.910538 -0.772183
vt 1.910538 1.993390
vt -2.129501 1.993390
vt -1.910538 -0.772183
vt -1.910538 1.993390
vt -1.910538 1.993390
vt -1.910538 -0.772183
vt 2.129501 1.993390
vt 2.129501 -0.772183
vt 2.129501 -0.772183
vt 2.129501 1.993390
vn 1.0000 -0.0000 0.0000
vn -0.7456 0.6664 0.0000
vn 0.7456 -0.6664 0.0000
vn -0.7456 -0.6664 0.0000
vn -1.0000 0.0000 0.0000
vn 0.0000 -0.0000 1.0000
vn 0.0000 0.0000 -1.0000
vn -0.0003 1.0000 0.0000
vn 0.0003 1.0000 0.0000
vn 0.0000 -1.0000 0.0000
vn 0.7456 0.6664 0.0000
vn 0.0000 1.0000 0.0000
vn 0.0003 -1.0000 0.0000
vn -0.0003 -1.0000 0.0000
usemtl ProBuilderDefault
s off
f 24/1/1 25/2/1 39/3/1 40/4/1
f 49/5/2 27/6/2 62/7/2 57/8/2
f 9/9/3 17/10/3 33/11/3 43/12/3
f 13/13/4 23/14/4 37/15/4 41/16/4
f 15/17/5 16/18/5 48/19/5 47/20/5
f 31/21/2 52/22/2 60/23/2 64/24/2
f 18/25/6 17/10/6 1/26/6 4/27/6
f 20/28/6 19/29/6 3/30/6 2/31/6
f 23/14/7 13/13/7 51/32/7 5/33/7
f 22/34/7 23/14/7 5/33/7 6/35/7
f 25/2/7 24/1/7 8/36/7 7/37/7
f 14/38/7 22/34/7 6/35/7 26/39/7
f 9/9/6 10/40/6 28/41/6 54/42/6
f 12/43/6 11/44/6 55/45/6 30/46/6
f 13/13/7 14/38/7 26/39/7 51/32/7
f 16/18/7 15/17/7 56/47/7 32/48/7
f 17/10/6 9/9/6 54/42/6 1/26/6
f 11/44/6 20/28/6 2/31/6 55/45/6
f 15/17/7 25/2/7 7/37/7 56/47/7
f 24/1/7 16/18/7 32/48/7 8/36/7
f 19/29/6 12/43/6 30/46/6 3/30/6
f 10/40/6 18/25/6 4/27/6 28/41/6
f 40/4/7 39/3/7 47/20/7 48/19/7
f 37/15/7 38/49/7 42/50/7 41/16/7
f 36/51/6 35/52/6 45/53/6 46/54/6
f 33/11/6 34/55/6 44/56/6 43/12/6
f 17/10/1 18/25/1 34/55/1 33/11/1
f 20/28/4 11/44/4 45/53/4 35/52/4
f 25/2/3 15/17/3 47/20/3 39/3/3
f 22/34/8 14/38/8 42/50/8 38/49/8
f 16/18/9 24/1/9 40/4/9 48/19/9
f 19/29/5 20/28/5 35/52/5 36/51/5
f 10/40/5 9/9/5 43/12/5 44/56/5
f 12/43/8 19/29/8 36/51/8 46/54/8
f 11/44/1 12/43/1 46/54/1 45/53/1
f 18/25/9 10/40/9 44/56/9 34/55/9
f 23/14/5 22/34/5 38/49/5 37/15/5
f 14/38/1 13/13/1 41/16/1 42/50/1
f 49/5/6 50/57/6 2/31/6 1/26/6
f 21/58/7 53/59/7 5/33/7 51/32/7
f 53/59/7 52/22/7 7/37/7 5/33/7
f 29/60/6 27/6/6 54/42/6 55/45/6
f 31/21/7 21/58/7 51/32/7 56/47/7
f 27/6/6 49/5/6 1/26/6 54/42/6
f 50/57/6 29/60/6 55/45/6 2/31/6
f 52/22/7 31/21/7 56/47/7 7/37/7
f 58/61/6 57/8/6 62/7/6 63/62/6
f 60/23/7 59/63/7 61/64/7 64/24/7
f 27/6/10 29/60/10 63/62/10 62/7/10
f 53/59/11 21/58/11 61/64/11 59/63/11
f 50/57/12 49/5/12 57/8/12 58/61/12
f 29/60/11 50/57/11 58/61/11 63/62/11
f 21/58/10 31/21/10 64/24/10 61/64/10
f 52/22/12 53/59/12 59/63/12 60/23/12
s 1
f 55/65/5 51/66/5 26/67/5 30/68/5
f 56/69/1 54/70/1 28/71/1 32/72/1
f 56/73/12 51/74/12 55/75/12 54/76/12
f 6/77/13 3/78/13 30/79/13 26/80/13
f 4/81/14 8/82/14 32/83/14 28/84/14
