# Blender v2.80 (sub 75) OBJ File: ''
# www.blender.org
mtllib window.mtl
o Cube.001
v 1.190000 1.499990 1.250000
v -1.260000 1.499990 1.250000
v -1.260000 1.149990 1.250000
v 1.190000 1.149990 1.250000
v -1.610070 1.499990 1.250000
v -1.610070 1.499990 0.750000
v -1.610070 1.149990 0.750000
v -1.610070 1.149990 1.250000
v -1.260000 1.499990 0.750000
v 1.190000 1.499990 0.750000
v 1.190000 1.149990 0.750000
v -1.260000 1.149990 0.750000
v 1.540070 1.499990 0.750000
v 1.540070 1.499990 1.250000
v 1.540070 1.149990 1.250000
v 1.540070 1.149990 0.750000
v 1.540070 -1.650150 0.750000
v 1.540070 -1.650150 1.250000
v 1.190000 -1.650150 1.250000
v 1.190000 -1.650150 0.750000
v -1.610070 -1.650150 1.250000
v -1.610070 -1.650150 0.750000
v -1.260000 -1.650150 0.750000
v -1.260000 -1.650150 1.250000
v -1.260000 -1.300080 1.250000
v -1.260000 -1.300080 0.750000
v -1.610070 -1.300080 1.250000
v -1.610070 -1.300080 0.750000
v 1.190000 -1.300080 0.750000
v 1.190000 -1.300080 1.250000
v 1.540070 -1.300080 0.750000
v 1.540070 -1.300080 1.250000
v 1.190000 -1.309179 0.750000
v -1.260000 -1.309179 0.750000
vt 1.500000 1.000000
vt -2.000000 1.000000
vt -2.000000 0.500000
vt 1.500000 0.500000
vt 0.000000 1.000000
vt -0.500000 1.000000
vt -0.500000 0.500000
vt 0.000000 0.500000
vt 2.000000 1.000000
vt -1.500000 1.000000
vt -1.500000 0.500000
vt 2.000000 0.500000
vt 0.500000 1.000000
vt 0.000000 1.000000
vt 0.000000 0.500000
vt 0.500000 0.500000
vt -1.500000 -0.500000
vt 2.000000 -0.500000
vt 2.000000 0.000000
vt -1.500000 0.000000
vt 1.500000 0.000000
vt -2.000000 0.000000
vt -2.000000 -0.500000
vt 1.500000 -0.500000
vt 2.000000 -0.500000
vt 2.000000 0.000000
vt 1.500000 0.000000
vt 1.500000 -0.500000
vt -2.000000 1.000000
vt -2.000000 0.500000
vt 2.000000 0.500000
vt 2.000000 1.000000
vt -2.000000 0.000000
vt -2.000000 -0.500000
vt -2.500100 0.000000
vt -2.500100 -0.500000
vt -2.000000 -0.500000
vt -2.000000 0.000000
vt -2.500100 1.000000
vt -2.500100 0.500000
vt 2.500100 0.500000
vt 2.500100 1.000000
vt 2.500100 -0.500000
vt 2.500100 0.000000
vt 0.000000 -3.000100
vt 0.500000 -3.000100
vt 0.500000 0.500000
vt 0.000000 0.500000
vt -2.500100 -3.000100
vt -2.000000 -3.000100
vt 2.000000 -3.000100
vt 2.500100 -3.000100
vt -0.500000 -3.000100
vt 0.000000 -3.000100
vt -0.500000 -3.000100
vt 0.000000 -3.000100
vt 0.000000 0.500000
vt -0.500000 0.500000
vt -2.000000 -3.000100
vt -1.500000 -3.000100
vt 1.500000 -3.000100
vt 2.000000 -3.000100
vt 0.000000 -3.000100
vt 0.500000 -3.000100
vt 0.000000 -3.500200
vt 0.500000 -3.500200
vt -2.500100 -3.500200
vt -2.000000 -3.500200
vt 2.000000 -3.500200
vt 2.500100 -3.500200
vt -0.500000 -3.500200
vt 0.000000 -3.500200
vt -2.000000 -3.500200
vt -1.500000 -3.500200
vt 1.500000 -3.500200
vt 2.000000 -3.500200
vt 0.000000 -3.500200
vt 0.500000 -3.500200
vt 2.000000 -0.500000
vt 2.000000 0.000000
vt -1.500000 0.000000
vt -1.500000 -0.500000
vt 2.000000 0.500000
vt -1.500000 0.500000
vn 0.0000 0.0000 1.0000
vn -1.0000 0.0000 0.0000
vn 0.0000 0.0000 -1.0000
vn 1.0000 0.0000 0.0000
vn 0.0000 1.0000 0.0000
vn 0.0000 -1.0000 0.0000
usemtl ProBuilderDefault
s 1
f 1/1/1 2/2/1 3/3/1 4/4/1
f 5/5/2 6/6/2 7/7/2 8/8/2
f 9/9/3 10/10/3 11/11/3 12/12/3
f 13/13/4 14/14/4 15/15/4 16/16/4
f 10/17/5 9/18/5 2/19/5 1/20/5
f 4/21/6 3/22/6 12/23/6 11/24/6
f 17/25/6 18/26/6 19/27/6 20/28/6
f 13/29/3 16/30/3 11/11/3 10/10/3
f 15/31/1 14/32/1 1/1/1 4/4/1
f 14/33/5 13/34/5 10/17/5 1/20/5
f 21/35/6 22/36/6 23/37/6 24/38/6
f 5/39/1 8/40/1 3/3/1 2/2/1
f 7/41/3 6/42/3 9/9/3 12/12/3
f 6/43/5 5/44/5 2/19/5 9/18/5
f 25/45/4 26/46/4 12/47/4 3/48/4
f 27/49/1 25/50/1 3/3/1 8/40/1
f 26/51/3 28/52/3 7/41/3 12/12/3
f 28/53/2 27/54/2 8/8/2 7/7/2
f 29/55/2 30/56/2 4/57/2 11/58/2
f 31/59/3 29/60/3 11/11/3 16/30/3
f 30/61/1 32/62/1 15/31/1 4/4/1
f 32/63/4 31/64/4 16/16/4 15/15/4
f 24/65/4 23/66/4 26/46/4 25/45/4
f 21/67/1 24/68/1 25/50/1 27/49/1
f 23/69/3 22/70/3 28/52/3 26/51/3
f 22/71/2 21/72/2 27/54/2 28/53/2
f 17/73/3 20/74/3 29/60/3 31/59/3
f 19/75/1 18/76/1 32/62/1 30/61/1
f 18/77/4 17/78/4 31/64/4 32/63/4
f 26/79/5 25/80/5 30/81/5 29/82/5
f 23/69/3 26/51/3 29/60/3 20/74/3
f 25/50/1 24/68/1 19/75/1 30/61/1
f 24/38/6 23/37/6 20/28/6 19/27/6
f 11/11/1 12/12/1 34/83/1 33/84/1
